# Blender v2.78 (sub 0) OBJ File: 'test_level.blend'
# www.blender.org
mtllib test_level.mtl
o Cube.004_Cube.008
v -11.397806 -13.901863 17.238358
v -11.397806 17.461033 17.238358
v -11.397806 -13.901863 16.258411
v -11.397806 17.461033 16.258411
v -2.899309 -13.901863 17.238358
v -2.899309 17.461033 17.238358
v -2.899309 -13.901863 16.258411
v -2.899309 17.461033 16.258411
vn -1.0000 0.0000 0.0000
vn 0.0000 0.0000 -1.0000
vn 1.0000 0.0000 0.0000
vn 0.0000 0.0000 1.0000
vn 0.0000 -1.0000 0.0000
vn 0.0000 1.0000 0.0000
usemtl None
s off
f 1//1 2//1 4//1 3//1
f 3//2 4//2 8//2 7//2
f 7//3 8//3 6//3 5//3
f 5//4 6//4 2//4 1//4
f 3//5 7//5 5//5 1//5
f 8//6 4//6 2//6 6//6
o Cube.003_Cube.007
v -4.263091 -13.935411 23.962528
v -4.263091 17.454220 23.962528
v -4.263091 -13.935411 16.217306
v -4.263091 17.454220 16.217306
v -2.263091 -13.935411 23.962528
v -2.263091 17.454220 23.962528
v -2.263091 -13.935411 16.217306
v -2.261539 17.454229 16.217306
vn -1.0000 0.0000 0.0000
vn 0.0000 0.0000 -1.0000
vn 1.0000 -0.0000 0.0001
vn 0.0000 0.0000 1.0000
vn 0.0000 -1.0000 0.0000
vn -0.0000 1.0000 0.0000
usemtl None
s off
f 9//7 10//7 12//7 11//7
f 11//8 12//8 16//8 15//8
f 15//9 16//9 14//9 13//9
f 13//10 14//10 10//10 9//10
f 11//11 15//11 13//11 9//11
f 16//12 12//12 10//12 14//12
o Cube.002_Cube.006
v -11.727320 -19.772961 23.927973
v -11.727320 27.312603 23.927973
v -11.727320 -19.772961 22.562874
v -11.727320 27.312603 22.562874
v -2.271954 -19.772961 23.927973
v -2.271954 27.312603 23.927973
v -2.271954 -19.772961 22.562874
v -2.271954 27.312603 22.562874
vn -1.0000 0.0000 0.0000
vn 0.0000 0.0000 -1.0000
vn 1.0000 0.0000 0.0000
vn 0.0000 0.0000 1.0000
vn 0.0000 -1.0000 0.0000
vn 0.0000 1.0000 0.0000
usemtl None
s off
f 17//13 18//13 20//13 19//13
f 19//14 20//14 24//14 23//14
f 23//15 24//15 22//15 21//15
f 21//16 22//16 18//16 17//16
f 19//17 23//17 21//17 17//17
f 24//18 20//18 18//18 22//18
o Cube_Cube.002
v -13.565860 -6.318824 -11.947749
v -13.565860 27.320778 -11.947749
v -13.565860 -6.318824 -13.947749
v -13.565860 27.320778 -13.947749
v 14.059398 -6.318824 -11.947749
v 14.059398 27.320778 -11.947749
v 14.059398 -6.318824 -13.947749
v 14.059398 27.320778 -13.947749
vn -1.0000 0.0000 0.0000
vn 0.0000 0.0000 -1.0000
vn 1.0000 0.0000 0.0000
vn 0.0000 0.0000 1.0000
vn 0.0000 -1.0000 0.0000
vn 0.0000 1.0000 0.0000
usemtl None
s off
f 25//19 26//19 28//19 27//19
f 27//20 28//20 32//20 31//20
f 31//21 32//21 30//21 29//21
f 29//22 30//22 26//22 25//22
f 27//23 31//23 29//23 25//23
f 32//24 28//24 26//24 30//24
o Cylinder
v -8.014772 4.266986 2.954339
v -8.014772 6.266986 2.954339
v -7.722137 4.266986 2.983161
v -7.722137 6.266986 2.983161
v -7.440747 4.266986 3.068520
v -7.440747 6.266986 3.068520
v -7.181417 4.266986 3.207135
v -7.181417 6.266986 3.207135
v -6.954112 4.266986 3.393679
v -6.954112 6.266986 3.393679
v -6.767568 4.266986 3.620984
v -6.767568 6.266986 3.620984
v -6.628953 4.266986 3.880314
v -6.628953 6.266986 3.880314
v -6.543594 4.266986 4.161704
v -6.543594 6.266986 4.161704
v -6.514772 4.266986 4.454339
v -6.514772 6.266986 4.454339
v -6.543594 4.266986 4.746974
v -6.543594 6.266986 4.746974
v -6.628953 4.266986 5.028364
v -6.628953 6.266986 5.028364
v -6.767568 4.266986 5.287694
v -6.767568 6.266986 5.287694
v -6.954112 4.266986 5.514999
v -6.954112 6.266986 5.514999
v -7.181417 4.266986 5.701544
v -7.181417 6.266986 5.701544
v -7.440747 4.266986 5.840158
v -7.440747 6.266986 5.840158
v -7.722137 4.266986 5.925517
v -7.722137 6.266986 5.925517
v -8.014773 4.266986 5.954339
v -8.014773 6.266986 5.954339
v -8.307408 4.266986 5.925517
v -8.307408 6.266986 5.925517
v -8.588799 4.266986 5.840158
v -8.588799 6.266986 5.840158
v -8.848128 4.266986 5.701543
v -8.848128 6.266986 5.701543
v -9.075434 4.266986 5.514998
v -9.075434 6.266986 5.514998
v -9.261977 4.266986 5.287694
v -9.261977 6.266986 5.287694
v -9.400592 4.266986 5.028363
v -9.400592 6.266986 5.028363
v -9.485950 4.266986 4.746973
v -9.485950 6.266986 4.746973
v -9.514772 4.266986 4.454338
v -9.514772 6.266986 4.454338
v -9.485950 4.266986 4.161702
v -9.485950 6.266986 4.161702
v -9.400591 4.266986 3.880312
v -9.400591 6.266986 3.880312
v -9.261976 4.266986 3.620982
v -9.261976 6.266986 3.620982
v -9.075431 4.266986 3.393677
v -9.075431 6.266986 3.393677
v -8.848126 4.266986 3.207134
v -8.848126 6.266986 3.207134
v -8.588796 4.266986 3.068519
v -8.588796 6.266986 3.068519
v -8.307405 4.266986 2.983161
v -8.307405 6.266986 2.983161
vn 0.0980 0.0000 -0.9952
vn 0.2903 0.0000 -0.9569
vn 0.4714 0.0000 -0.8819
vn 0.6344 0.0000 -0.7730
vn 0.7730 0.0000 -0.6344
vn 0.8819 0.0000 -0.4714
vn 0.9569 0.0000 -0.2903
vn 0.9952 0.0000 -0.0980
vn 0.9952 0.0000 0.0980
vn 0.9569 0.0000 0.2903
vn 0.8819 0.0000 0.4714
vn 0.7730 0.0000 0.6344
vn 0.6344 0.0000 0.7730
vn 0.4714 0.0000 0.8819
vn 0.2903 0.0000 0.9569
vn 0.0980 0.0000 0.9952
vn -0.0980 0.0000 0.9952
vn -0.2903 0.0000 0.9569
vn -0.4714 0.0000 0.8819
vn -0.6344 0.0000 0.7730
vn -0.7730 0.0000 0.6344
vn -0.8819 0.0000 0.4714
vn -0.9569 0.0000 0.2903
vn -0.9952 0.0000 0.0980
vn -0.9952 0.0000 -0.0980
vn -0.9569 0.0000 -0.2903
vn -0.8819 0.0000 -0.4714
vn -0.7730 0.0000 -0.6344
vn -0.6344 0.0000 -0.7730
vn -0.4714 0.0000 -0.8819
vn 0.0000 1.0000 -0.0000
vn -0.2903 0.0000 -0.9569
vn -0.0980 0.0000 -0.9952
vn 0.0000 -1.0000 -0.0000
usemtl None
s off
f 33//25 34//25 36//25 35//25
f 35//26 36//26 38//26 37//26
f 37//27 38//27 40//27 39//27
f 39//28 40//28 42//28 41//28
f 41//29 42//29 44//29 43//29
f 43//30 44//30 46//30 45//30
f 45//31 46//31 48//31 47//31
f 47//32 48//32 50//32 49//32
f 49//33 50//33 52//33 51//33
f 51//34 52//34 54//34 53//34
f 53//35 54//35 56//35 55//35
f 55//36 56//36 58//36 57//36
f 57//37 58//37 60//37 59//37
f 59//38 60//38 62//38 61//38
f 61//39 62//39 64//39 63//39
f 63//40 64//40 66//40 65//40
f 65//41 66//41 68//41 67//41
f 67//42 68//42 70//42 69//42
f 69//43 70//43 72//43 71//43
f 71//44 72//44 74//44 73//44
f 73//45 74//45 76//45 75//45
f 75//46 76//46 78//46 77//46
f 77//47 78//47 80//47 79//47
f 79//48 80//48 82//48 81//48
f 81//49 82//49 84//49 83//49
f 83//50 84//50 86//50 85//50
f 85//51 86//51 88//51 87//51
f 87//52 88//52 90//52 89//52
f 89//53 90//53 92//53 91//53
f 91//54 92//54 94//54 93//54
f 36//55 34//55 96//55 94//55 92//55 90//55 88//55 86//55 84//55 82//55 80//55 78//55 76//55 74//55 72//55 70//55 68//55 66//55 64//55 62//55 60//55 58//55 56//55 54//55 52//55 50//55 48//55 46//55 44//55 42//55 40//55 38//55
f 93//56 94//56 96//56 95//56
f 95//57 96//57 34//57 33//57
f 33//58 35//58 37//58 39//58 41//58 43//58 45//58 47//58 49//58 51//58 53//58 55//58 57//58 59//58 61//58 63//58 65//58 67//58 69//58 71//58 73//58 75//58 77//58 79//58 81//58 83//58 85//58 87//58 89//58 91//58 93//58 95//58
o wall_2_Cube.004
v -7.599788 5.850158 4.124708
v -7.599788 6.263250 4.124708
v -7.599788 5.850158 -7.102314
v -7.599788 6.263250 -7.102314
v -8.421119 5.850158 4.124708
v -8.421119 6.263250 4.124708
v -8.421119 5.850158 -7.102314
v -8.421119 6.263250 -7.102314
vn 0.0000 0.0000 1.0000
vn -1.0000 0.0000 0.0000
vn 0.0000 1.0000 0.0000
vn 0.0000 -1.0000 0.0000
vn 0.0000 0.0000 -1.0000
vn 1.0000 0.0000 0.0000
usemtl None
s off
f 97//59 98//59 102//59 101//59
f 103//60 101//60 102//60 104//60
f 98//61 100//61 104//61 102//61
f 99//62 97//62 101//62 103//62
f 100//63 99//63 103//63 104//63
f 99//64 100//64 98//64 97//64
o wall_1_Cube.003
v -6.217830 2.517932 -6.855761
v -6.217830 6.279613 -6.855761
v -6.217830 2.517932 -9.970490
v -6.217830 6.279613 -9.970490
v -9.812101 2.517932 -6.855761
v -9.812101 6.279613 -6.855761
v -9.812101 2.517932 -9.970490
v -9.812101 6.279613 -9.970490
vn 0.0000 0.0000 1.0000
vn -1.0000 0.0000 0.0000
vn 0.0000 1.0000 0.0000
vn 0.0000 -1.0000 0.0000
vn 0.0000 0.0000 -1.0000
vn 1.0000 0.0000 0.0000
usemtl None
s off
f 105//65 106//65 110//65 109//65
f 111//66 109//66 110//66 112//66
f 106//67 108//67 112//67 110//67
f 107//68 105//68 109//68 111//68
f 108//69 107//69 111//69 112//69
f 107//70 108//70 106//70 105//70
o ramp_Cube.001
v -3.126185 0.393638 -6.855762
v -3.126185 2.393638 -6.855761
v -3.126185 0.393638 -9.970490
v -3.126185 2.393638 -9.970490
v 0.983569 0.393638 -6.855762
v 0.983569 2.393638 -6.855762
v 0.983569 0.393638 -9.970490
v 0.983569 2.393638 -9.970490
v 4.381312 0.393638 -6.855762
v 4.381312 0.393638 -9.970490
vn 0.0000 0.0000 -1.0000
vn 0.0000 0.0000 1.0000
vn 0.0000 -1.0000 0.0000
vn 0.0000 1.0000 0.0000
vn 0.5073 0.8618 0.0000
vn -1.0000 0.0000 0.0000
usemtl None
s off
f 115//71 116//71 120//71 119//71
f 118//72 117//72 121//72
f 117//72 118//72 114//72 113//72
f 115//73 119//73 117//73 113//73
f 120//74 116//74 114//74 118//74
f 117//73 119//73 122//73 121//73
f 120//75 118//75 121//75 122//75
f 119//71 120//71 122//71
f 115//76 113//76 114//76 116//76
o Floor_Cube
v 14.017170 -6.293043 -12.099794
v 14.017170 -6.293043 16.302917
v -12.114901 -6.293043 16.302914
v -12.114891 -6.293043 -12.099803
v 14.017170 0.500000 -12.099785
v 14.017157 0.500000 16.302929
v -12.114906 0.500000 16.302910
v -12.114897 0.500000 -12.099796
vn 0.0000 -1.0000 -0.0000
vn 0.0000 1.0000 0.0000
vn 1.0000 0.0000 0.0000
vn -0.0000 -0.0000 1.0000
vn -1.0000 -0.0000 -0.0000
vn 0.0000 0.0000 -1.0000
usemtl Material
s off
f 123//77 124//77 125//77 126//77
f 127//78 130//78 129//78 128//78
f 123//79 127//79 128//79 124//79
f 124//80 128//80 129//80 125//80
f 125//81 129//81 130//81 126//81
f 127//82 123//82 126//82 130//82
o Cylinder.001
v -8.465096 8.247104 6.621410
v -8.465096 10.247104 6.621410
v -8.172460 8.247104 6.650232
v -8.172460 10.247104 6.650232
v -7.891070 8.247104 6.735591
v -7.891070 10.247104 6.735591
v -7.631740 8.247104 6.874206
v -7.631740 10.247104 6.874206
v -7.404435 8.247104 7.060750
v -7.404435 10.247104 7.060750
v -7.217891 8.247104 7.288055
v -7.217891 10.247104 7.288055
v -7.079276 8.247104 7.547385
v -7.079276 10.247104 7.547385
v -6.993917 8.247104 7.828775
v -6.993917 10.247104 7.828775
v -6.965096 8.247104 8.121410
v -6.965096 10.247104 8.121410
v -6.993917 8.247104 8.414045
v -6.993917 10.247104 8.414045
v -7.079276 8.247104 8.695436
v -7.079276 10.247104 8.695436
v -7.217891 8.247104 8.954765
v -7.217891 10.247104 8.954765
v -7.404435 8.247104 9.182071
v -7.404435 10.247104 9.182071
v -7.631740 8.247104 9.368615
v -7.631740 10.247104 9.368615
v -7.891070 8.247104 9.507230
v -7.891070 10.247104 9.507230
v -8.172461 8.247104 9.592588
v -8.172461 10.247104 9.592588
v -8.465096 8.247104 9.621410
v -8.465096 10.247104 9.621410
v -8.757731 8.247104 9.592588
v -8.757731 10.247104 9.592588
v -9.039122 8.247104 9.507229
v -9.039122 10.247104 9.507229
v -9.298451 8.247104 9.368614
v -9.298451 10.247104 9.368614
v -9.525757 8.247104 9.182070
v -9.525757 10.247104 9.182070
v -9.712300 8.247104 8.954765
v -9.712300 10.247104 8.954765
v -9.850915 8.247104 8.695435
v -9.850915 10.247104 8.695435
v -9.936274 8.247104 8.414044
v -9.936274 10.247104 8.414044
v -9.965096 8.247104 8.121408
v -9.965096 10.247104 8.121408
v -9.936274 8.247104 7.828773
v -9.936274 10.247104 7.828773
v -9.850914 8.247104 7.547384
v -9.850914 10.247104 7.547384
v -9.712299 8.247104 7.288054
v -9.712299 10.247104 7.288054
v -9.525754 8.247104 7.060749
v -9.525754 10.247104 7.060749
v -9.298450 8.247104 6.874205
v -9.298450 10.247104 6.874205
v -9.039119 8.247104 6.735590
v -9.039119 10.247104 6.735590
v -8.757729 8.247104 6.650232
v -8.757729 10.247104 6.650232
vn 0.0980 0.0000 -0.9952
vn 0.2903 0.0000 -0.9569
vn 0.4714 0.0000 -0.8819
vn 0.6344 0.0000 -0.7730
vn 0.7730 0.0000 -0.6344
vn 0.8819 0.0000 -0.4714
vn 0.9569 0.0000 -0.2903
vn 0.9952 0.0000 -0.0980
vn 0.9952 0.0000 0.0980
vn 0.9569 0.0000 0.2903
vn 0.8819 0.0000 0.4714
vn 0.7730 0.0000 0.6344
vn 0.6344 0.0000 0.7730
vn 0.4714 0.0000 0.8819
vn 0.2903 0.0000 0.9569
vn 0.0980 0.0000 0.9952
vn -0.0980 0.0000 0.9952
vn -0.2903 0.0000 0.9569
vn -0.4714 0.0000 0.8819
vn -0.6344 0.0000 0.7730
vn -0.7730 0.0000 0.6344
vn -0.8819 0.0000 0.4714
vn -0.9569 0.0000 0.2903
vn -0.9952 0.0000 0.0980
vn -0.9952 0.0000 -0.0980
vn -0.9569 0.0000 -0.2903
vn -0.8819 0.0000 -0.4714
vn -0.7730 0.0000 -0.6344
vn -0.6344 0.0000 -0.7730
vn -0.4714 0.0000 -0.8819
vn 0.0000 1.0000 0.0000
vn -0.2903 0.0000 -0.9569
vn -0.0980 0.0000 -0.9952
vn 0.0000 -1.0000 0.0000
usemtl None
s off
f 131//83 132//83 134//83 133//83
f 133//84 134//84 136//84 135//84
f 135//85 136//85 138//85 137//85
f 137//86 138//86 140//86 139//86
f 139//87 140//87 142//87 141//87
f 141//88 142//88 144//88 143//88
f 143//89 144//89 146//89 145//89
f 145//90 146//90 148//90 147//90
f 147//91 148//91 150//91 149//91
f 149//92 150//92 152//92 151//92
f 151//93 152//93 154//93 153//93
f 153//94 154//94 156//94 155//94
f 155//95 156//95 158//95 157//95
f 157//96 158//96 160//96 159//96
f 159//97 160//97 162//97 161//97
f 161//98 162//98 164//98 163//98
f 163//99 164//99 166//99 165//99
f 165//100 166//100 168//100 167//100
f 167//101 168//101 170//101 169//101
f 169//102 170//102 172//102 171//102
f 171//103 172//103 174//103 173//103
f 173//104 174//104 176//104 175//104
f 175//105 176//105 178//105 177//105
f 177//106 178//106 180//106 179//106
f 179//107 180//107 182//107 181//107
f 181//108 182//108 184//108 183//108
f 183//109 184//109 186//109 185//109
f 185//110 186//110 188//110 187//110
f 187//111 188//111 190//111 189//111
f 189//112 190//112 192//112 191//112
f 134//113 132//113 194//113 192//113 190//113 188//113 186//113 184//113 182//113 180//113 178//113 176//113 174//113 172//113 170//113 168//113 166//113 164//113 162//113 160//113 158//113 156//113 154//113 152//113 150//113 148//113 146//113 144//113 142//113 140//113 138//113 136//113
f 191//114 192//114 194//114 193//114
f 193//115 194//115 132//115 131//115
f 131//116 133//116 135//116 137//116 139//116 141//116 143//116 145//116 147//116 149//116 151//116 153//116 155//116 157//116 159//116 161//116 163//116 165//116 167//116 169//116 171//116 173//116 175//116 177//116 179//116 181//116 183//116 185//116 187//116 189//116 191//116 193//116
o Cylinder.002
v -8.610195 11.973851 9.775277
v -8.610195 13.973851 9.775277
v -8.317559 11.973851 9.804099
v -8.317559 13.973851 9.804099
v -8.036170 11.973851 9.889458
v -8.036170 13.973851 9.889458
v -7.776840 11.973851 10.028072
v -7.776840 13.973851 10.028072
v -7.549535 11.973851 10.214617
v -7.549535 13.973851 10.214617
v -7.362990 11.973851 10.441922
v -7.362990 13.973851 10.441922
v -7.224376 11.973851 10.701252
v -7.224376 13.973851 10.701252
v -7.139017 11.973851 10.982641
v -7.139017 13.973851 10.982641
v -7.110195 11.973851 11.275277
v -7.110195 13.973851 11.275277
v -7.139017 11.973851 11.567912
v -7.139017 13.973851 11.567912
v -7.224376 11.973851 11.849302
v -7.224376 13.973851 11.849302
v -7.362990 11.973851 12.108632
v -7.362990 13.973851 12.108632
v -7.549535 11.973851 12.335938
v -7.549535 13.973851 12.335938
v -7.776840 11.973851 12.522482
v -7.776840 13.973851 12.522482
v -8.036170 11.973851 12.661097
v -8.036170 13.973851 12.661097
v -8.317560 11.973851 12.746455
v -8.317560 13.973851 12.746455
v -8.610196 11.973851 12.775277
v -8.610196 13.973851 12.775277
v -8.902831 11.973851 12.746455
v -8.902831 13.973851 12.746455
v -9.184221 11.973851 12.661097
v -9.184221 13.973851 12.661097
v -9.443551 11.973851 12.522481
v -9.443551 13.973851 12.522481
v -9.670856 11.973851 12.335937
v -9.670856 13.973851 12.335937
v -9.857400 11.973851 12.108631
v -9.857400 13.973851 12.108631
v -9.996015 11.973851 11.849301
v -9.996015 13.973851 11.849301
v -10.081373 11.973851 11.567911
v -10.081373 13.973851 11.567911
v -10.110195 11.973851 11.275275
v -10.110195 13.973851 11.275275
v -10.081373 11.973851 10.982640
v -10.081373 13.973851 10.982640
v -9.996014 11.973851 10.701250
v -9.996014 13.973851 10.701250
v -9.857399 11.973851 10.441920
v -9.857399 13.973851 10.441920
v -9.670854 11.973851 10.214616
v -9.670854 13.973851 10.214616
v -9.443549 11.973851 10.028071
v -9.443549 13.973851 10.028071
v -9.184218 11.973851 9.889457
v -9.184218 13.973851 9.889457
v -8.902828 11.973851 9.804099
v -8.902828 13.973851 9.804099
vn 0.0980 0.0000 -0.9952
vn 0.2903 0.0000 -0.9569
vn 0.4714 0.0000 -0.8819
vn 0.6344 0.0000 -0.7730
vn 0.7730 0.0000 -0.6344
vn 0.8819 0.0000 -0.4714
vn 0.9569 0.0000 -0.2903
vn 0.9952 0.0000 -0.0980
vn 0.9952 0.0000 0.0980
vn 0.9569 0.0000 0.2903
vn 0.8819 0.0000 0.4714
vn 0.7730 0.0000 0.6344
vn 0.6344 0.0000 0.7730
vn 0.4714 0.0000 0.8819
vn 0.2903 0.0000 0.9569
vn 0.0980 0.0000 0.9952
vn -0.0980 0.0000 0.9952
vn -0.2903 0.0000 0.9569
vn -0.4714 0.0000 0.8819
vn -0.6344 0.0000 0.7730
vn -0.7730 0.0000 0.6344
vn -0.8819 0.0000 0.4714
vn -0.9569 0.0000 0.2903
vn -0.9952 0.0000 0.0980
vn -0.9952 0.0000 -0.0980
vn -0.9569 0.0000 -0.2903
vn -0.8819 0.0000 -0.4714
vn -0.7730 0.0000 -0.6344
vn -0.6344 0.0000 -0.7730
vn -0.4714 0.0000 -0.8819
vn 0.0000 1.0000 -0.0000
vn -0.2903 0.0000 -0.9569
vn -0.0980 0.0000 -0.9952
vn 0.0000 -1.0000 0.0000
usemtl None
s off
f 195//117 196//117 198//117 197//117
f 197//118 198//118 200//118 199//118
f 199//119 200//119 202//119 201//119
f 201//120 202//120 204//120 203//120
f 203//121 204//121 206//121 205//121
f 205//122 206//122 208//122 207//122
f 207//123 208//123 210//123 209//123
f 209//124 210//124 212//124 211//124
f 211//125 212//125 214//125 213//125
f 213//126 214//126 216//126 215//126
f 215//127 216//127 218//127 217//127
f 217//128 218//128 220//128 219//128
f 219//129 220//129 222//129 221//129
f 221//130 222//130 224//130 223//130
f 223//131 224//131 226//131 225//131
f 225//132 226//132 228//132 227//132
f 227//133 228//133 230//133 229//133
f 229//134 230//134 232//134 231//134
f 231//135 232//135 234//135 233//135
f 233//136 234//136 236//136 235//136
f 235//137 236//137 238//137 237//137
f 237//138 238//138 240//138 239//138
f 239//139 240//139 242//139 241//139
f 241//140 242//140 244//140 243//140
f 243//141 244//141 246//141 245//141
f 245//142 246//142 248//142 247//142
f 247//143 248//143 250//143 249//143
f 249//144 250//144 252//144 251//144
f 251//145 252//145 254//145 253//145
f 253//146 254//146 256//146 255//146
f 198//147 196//147 258//147 256//147 254//147 252//147 250//147 248//147 246//147 244//147 242//147 240//147 238//147 236//147 234//147 232//147 230//147 228//147 226//147 224//147 222//147 220//147 218//147 216//147 214//147 212//147 210//147 208//147 206//147 204//147 202//147 200//147
f 255//148 256//148 258//148 257//148
f 257//149 258//149 196//149 195//149
f 195//150 197//150 199//150 201//150 203//150 205//150 207//150 209//150 211//150 213//150 215//150 217//150 219//150 221//150 223//150 225//150 227//150 229//150 231//150 233//150 235//150 237//150 239//150 241//150 243//150 245//150 247//150 249//150 251//150 253//150 255//150 257//150
o Cylinder.003
v -8.594707 15.586020 12.693810
v -8.594707 17.586020 12.693810
v -8.302072 15.586020 12.722632
v -8.302072 17.586020 12.722632
v -8.020682 15.586020 12.807991
v -8.020682 17.586020 12.807991
v -7.761352 15.586020 12.946606
v -7.761352 17.586020 12.946606
v -7.534047 15.586020 13.133150
v -7.534047 17.586020 13.133150
v -7.347503 15.586020 13.360456
v -7.347503 17.586020 13.360456
v -7.208888 15.586020 13.619785
v -7.208888 17.586020 13.619785
v -7.123529 15.586020 13.901175
v -7.123529 17.586020 13.901175
v -7.094707 15.586020 14.193810
v -7.094707 17.586020 14.193810
v -7.123529 15.586020 14.486445
v -7.123529 17.586020 14.486445
v -7.208888 15.586020 14.767836
v -7.208888 17.586020 14.767836
v -7.347503 15.586020 15.027165
v -7.347503 17.586020 15.027165
v -7.534047 15.586020 15.254471
v -7.534047 17.586020 15.254471
v -7.761352 15.586020 15.441015
v -7.761352 17.586020 15.441015
v -8.020682 15.586020 15.579630
v -8.020682 17.586020 15.579630
v -8.302073 15.586020 15.664989
v -8.302073 17.586020 15.664989
v -8.594708 15.586020 15.693810
v -8.594708 17.586020 15.693810
v -8.887343 15.586020 15.664989
v -8.887343 17.586020 15.664989
v -9.168734 15.586020 15.579630
v -9.168734 17.586020 15.579630
v -9.428063 15.586020 15.441014
v -9.428063 17.586020 15.441014
v -9.655369 15.586020 15.254470
v -9.655369 17.586020 15.254470
v -9.841912 15.586020 15.027164
v -9.841912 17.586020 15.027164
v -9.980527 15.586020 14.767835
v -9.980527 17.586020 14.767835
v -10.065886 15.586020 14.486444
v -10.065886 17.586020 14.486444
v -10.094707 15.586020 14.193809
v -10.094707 17.586020 14.193809
v -10.065886 15.586020 13.901174
v -10.065886 17.586020 13.901174
v -9.980526 15.586020 13.619783
v -9.980526 17.586020 13.619783
v -9.841911 15.586020 13.360454
v -9.841911 17.586020 13.360454
v -9.655366 15.586020 13.133149
v -9.655366 17.586020 13.133149
v -9.428061 15.586020 12.946605
v -9.428061 17.586020 12.946605
v -9.168731 15.586020 12.807990
v -9.168731 17.586020 12.807990
v -8.887341 15.586020 12.722632
v -8.887341 17.586020 12.722632
vn 0.0980 0.0000 -0.9952
vn 0.2903 0.0000 -0.9569
vn 0.4714 0.0000 -0.8819
vn 0.6344 0.0000 -0.7730
vn 0.7730 0.0000 -0.6344
vn 0.8819 0.0000 -0.4714
vn 0.9569 0.0000 -0.2903
vn 0.9952 0.0000 -0.0980
vn 0.9952 0.0000 0.0980
vn 0.9569 0.0000 0.2903
vn 0.8819 0.0000 0.4714
vn 0.7730 0.0000 0.6344
vn 0.6344 0.0000 0.7730
vn 0.4714 0.0000 0.8819
vn 0.2903 0.0000 0.9569
vn 0.0980 0.0000 0.9952
vn -0.0980 0.0000 0.9952
vn -0.2903 0.0000 0.9569
vn -0.4714 0.0000 0.8819
vn -0.6344 0.0000 0.7730
vn -0.7730 0.0000 0.6344
vn -0.8819 0.0000 0.4714
vn -0.9569 0.0000 0.2903
vn -0.9952 0.0000 0.0980
vn -0.9952 0.0000 -0.0980
vn -0.9569 0.0000 -0.2903
vn -0.8819 0.0000 -0.4714
vn -0.7730 0.0000 -0.6344
vn -0.6344 0.0000 -0.7730
vn -0.4714 0.0000 -0.8819
vn 0.0000 1.0000 0.0000
vn -0.2903 0.0000 -0.9569
vn -0.0980 0.0000 -0.9952
vn 0.0000 -1.0000 -0.0000
usemtl None
s off
f 259//151 260//151 262//151 261//151
f 261//152 262//152 264//152 263//152
f 263//153 264//153 266//153 265//153
f 265//154 266//154 268//154 267//154
f 267//155 268//155 270//155 269//155
f 269//156 270//156 272//156 271//156
f 271//157 272//157 274//157 273//157
f 273//158 274//158 276//158 275//158
f 275//159 276//159 278//159 277//159
f 277//160 278//160 280//160 279//160
f 279//161 280//161 282//161 281//161
f 281//162 282//162 284//162 283//162
f 283//163 284//163 286//163 285//163
f 285//164 286//164 288//164 287//164
f 287//165 288//165 290//165 289//165
f 289//166 290//166 292//166 291//166
f 291//167 292//167 294//167 293//167
f 293//168 294//168 296//168 295//168
f 295//169 296//169 298//169 297//169
f 297//170 298//170 300//170 299//170
f 299//171 300//171 302//171 301//171
f 301//172 302//172 304//172 303//172
f 303//173 304//173 306//173 305//173
f 305//174 306//174 308//174 307//174
f 307//175 308//175 310//175 309//175
f 309//176 310//176 312//176 311//176
f 311//177 312//177 314//177 313//177
f 313//178 314//178 316//178 315//178
f 315//179 316//179 318//179 317//179
f 317//180 318//180 320//180 319//180
f 262//181 260//181 322//181 320//181 318//181 316//181 314//181 312//181 310//181 308//181 306//181 304//181 302//181 300//181 298//181 296//181 294//181 292//181 290//181 288//181 286//181 284//181 282//181 280//181 278//181 276//181 274//181 272//181 270//181 268//181 266//181 264//181
f 319//182 320//182 322//182 321//182
f 321//183 322//183 260//183 259//183
f 259//184 261//184 263//184 265//184 267//184 269//184 271//184 273//184 275//184 277//184 279//184 281//184 283//184 285//184 287//184 289//184 291//184 293//184 295//184 297//184 299//184 301//184 303//184 305//184 307//184 309//184 311//184 313//184 315//184 317//184 319//184 321//184
o Cube.001_Cube.005
v -11.512306 -6.318824 23.861790
v -11.512306 27.314320 23.861790
v -13.512306 -6.318824 23.861790
v -13.512306 27.314320 23.861790
v -11.512307 -6.318824 -13.056315
v -11.512307 27.314320 -13.056315
v -13.512307 -6.318824 -13.056315
v -13.512307 27.314320 -13.056315
vn 0.0000 0.0000 1.0000
vn -1.0000 0.0000 0.0000
vn 0.0000 0.0000 -1.0000
vn 1.0000 0.0000 -0.0000
vn 0.0000 -1.0000 0.0000
vn 0.0000 1.0000 -0.0000
usemtl None
s off
f 323//185 324//185 326//185 325//185
f 325//186 326//186 330//186 329//186
f 329//187 330//187 328//187 327//187
f 327//188 328//188 324//188 323//188
f 325//189 329//189 327//189 323//189
f 330//190 326//190 324//190 328//190
o Floor.001_Cube.009
v 8.762835 -25.945101 -3.787815
v 8.762835 -25.945101 24.614899
v -17.369236 -25.945101 24.614895
v -17.369226 -25.945101 -3.787823
v 8.762835 -19.152058 -3.787805
v 8.762821 -19.152058 24.614910
v -17.369242 -19.152058 24.614891
v -17.369232 -19.152058 -3.787817
vn 0.0000 -1.0000 0.0000
vn 0.0000 1.0000 0.0000
vn 1.0000 0.0000 0.0000
vn -0.0000 -0.0000 1.0000
vn -1.0000 -0.0000 -0.0000
vn 0.0000 0.0000 -1.0000
usemtl Material.001
s off
f 331//191 332//191 333//191 334//191
f 335//192 338//192 337//192 336//192
f 331//193 335//193 336//193 332//193
f 332//194 336//194 337//194 333//194
f 333//195 337//195 338//195 334//195
f 335//196 331//196 334//196 338//196
