# Blender v2.78 (sub 0) OBJ File: ''
# www.blender.org
o ramp.002_Cube.004
v 2.211229 9.469999 -11.608488
v 0.211229 5.708318 -11.608489
v 2.211229 5.708318 -11.608489
v 0.211229 9.469999 -13.608488
v 0.211229 5.708318 -13.608489
v 2.211229 9.469999 -13.608488
v 0.211229 9.469999 -11.608488
v 2.211229 5.708318 -13.608489
vn 0.0000 -0.0000 1.0000
vn -1.0000 -0.0000 0.0000
vn 0.0000 1.0000 0.0000
vn 0.0000 -1.0000 -0.0000
vn 0.0000 0.0000 -1.0000
vn 1.0000 0.0000 0.0000
s 1
f 1//1 2//1 3//1
f 2//2 4//2 5//2
f 6//3 7//3 1//3
f 3//4 5//4 8//4
f 8//5 4//5 6//5
f 6//6 3//6 8//6
f 1//1 7//1 2//1
f 2//2 7//2 4//2
f 6//3 4//3 7//3
f 3//4 2//4 5//4
f 8//5 5//5 4//5
f 6//6 1//6 3//6
o Floor_Cube
v 19.999996 -0.499997 -19.999989
v -19.999998 -0.500003 19.999987
v -19.999989 -0.499997 -19.999998
v 19.999996 0.500003 -19.999979
v -20.000004 0.499997 19.999983
v 19.999983 0.499997 20.000002
v 19.999996 -0.500003 19.999990
v -19.999994 0.500003 -19.999990
vn 0.0000 -1.0000 -0.0000
vn -0.0000 1.0000 0.0000
vn 1.0000 -0.0000 0.0000
vn -0.0000 -0.0000 1.0000
vn -1.0000 -0.0000 -0.0000
vn 0.0000 0.0000 -1.0000
s 1
f 9//7 10//7 11//7
f 12//8 13//8 14//8
f 12//9 15//9 9//9
f 14//10 10//10 15//10
f 13//11 11//11 10//11
f 12//12 11//12 16//12
f 9//7 15//7 10//7
f 12//8 16//8 13//8
f 12//9 14//9 15//9
f 14//10 13//10 10//10
f 13//11 16//11 11//11
f 12//12 9//12 11//12
o test_with_spaces_ramp_Cube.001
v -0.408875 2.555348 -13.608490
v 3.700880 0.555348 -13.608490
v -0.408875 0.555348 -13.608490
v 3.700880 2.555348 -11.608490
v 3.700880 0.555348 -11.608490
v 7.098622 0.555348 -11.608490
v -0.408875 0.555348 -11.608490
v 3.700880 2.555348 -13.608490
v 7.098622 0.555348 -13.608490
v -0.408875 2.555348 -11.608490
vn 0.0000 0.0000 -1.0000
vn 0.0000 0.0000 1.0000
vn 0.0000 -1.0000 -0.0000
vn 0.0000 1.0000 0.0000
vn 0.5073 0.8618 0.0000
vn -1.0000 0.0000 0.0000
s 1
f 17//13 18//13 19//13
f 20//14 21//14 22//14
f 20//14 23//14 21//14
f 18//15 23//15 19//15
f 17//16 20//16 24//16
f 18//15 22//15 21//15
f 20//17 25//17 24//17
f 18//13 24//13 25//13
f 23//18 17//18 19//18
f 17//13 24//13 18//13
f 20//14 26//14 23//14
f 18//15 21//15 23//15
f 17//16 26//16 20//16
f 18//15 25//15 22//15
f 20//17 22//17 25//17
f 23//18 26//18 17//18
o ramp.001_Cube.003
v -1.741830 7.189539 -11.608489
v -3.741830 3.427858 -11.608489
v -1.741830 3.427858 -11.608489
v -3.741830 7.189539 -13.608489
v -3.741830 3.427858 -13.608489
v -1.741830 7.189539 -13.608489
v -3.741830 7.189539 -11.608489
v -1.741830 3.427858 -13.608489
vn 0.0000 0.0000 1.0000
vn -1.0000 0.0000 0.0000
vn 0.0000 1.0000 0.0000
vn 0.0000 -1.0000 -0.0000
vn 0.0000 0.0000 -1.0000
vn 1.0000 0.0000 0.0000
s 1
f 27//19 28//19 29//19
f 28//20 30//20 31//20
f 32//21 33//21 27//21
f 29//22 31//22 34//22
f 34//23 30//23 32//23
f 32//24 29//24 34//24
f 27//19 33//19 28//19
f 28//20 33//20 30//20
f 32//21 30//21 33//21
f 29//22 28//22 31//22
f 34//23 31//23 30//23
f 32//24 27//24 29//24
