# Blender v2.78 (sub 0) OBJ File: 'Hex.blend'
# www.blender.org
mtllib hex.mtl
o Hex_Cylinder.001
v 0.000000 -5.773500 1.500000
v 0.000000 -5.773500 -1.500000
v 4.999997 -2.886750 1.500001
v 4.999997 -2.886750 -1.500000
v 4.999996 2.886750 1.500000
v -0.000000 5.773499 1.500000
v -0.000000 5.773499 -1.500000
v -4.999997 2.886749 1.500000
v -4.999997 -2.886749 1.500000
v -4.999997 -2.886750 -1.500000
v 4.999996 2.886750 -1.500000
v -4.999997 2.886749 -1.500000
vt 0.0100 0.4993
vt 0.6714 0.9870
vt 0.0100 0.9870
vt 0.0100 0.4993
vt 0.6714 0.9870
vt 0.0100 0.9870
vt 0.6714 0.9870
vt 0.0100 0.4993
vt 0.6714 0.4993
vt 0.6714 0.9870
vt 0.0100 0.4993
vt 0.6714 0.4993
vt 0.0100 0.4993
vt 0.6714 0.9870
vt 0.0100 0.9870
vt 0.0100 0.4993
vt 0.6714 0.9870
vt 0.0100 0.9870
vt 0.9882 0.4245
vt 0.6342 0.4245
vt 0.6342 0.1520
vt 0.6882 0.0112
vt 0.9948 0.2472
vt 0.6882 0.4832
vt 0.6714 0.4993
vt 0.6714 0.4993
vt 0.0100 0.9870
vt 0.0100 0.9870
vt 0.6714 0.4993
vt 0.6714 0.4993
vt 0.8112 0.0157
vt 0.9882 0.1520
vt 0.8112 0.5607
vt 0.5860 0.2472
vt 0.8926 0.0112
vt 0.8926 0.4832
vn 0.5000 -0.8660 0.0000
vn 1.0000 0.0000 0.0000
vn 0.5000 0.8660 0.0000
vn -0.5000 0.8660 0.0000
vn -1.0000 0.0000 0.0000
vn -0.5000 -0.8660 0.0000
vn 0.0000 -0.0000 1.0000
vn 0.0000 -0.0000 -1.0000
usemtl Grass
s off
f 2/1/1 3/2/1 1/3/1
f 4/4/2 5/5/2 3/6/2
f 11/7/3 6/8/3 5/9/3
f 7/10/4 8/11/4 6/12/4
f 12/13/5 9/14/5 8/15/5
f 10/16/6 1/17/6 9/18/6
f 5/19/7 8/20/7 9/21/7
f 2/22/8 12/23/8 11/24/8
f 2/1/1 4/25/1 3/2/1
f 4/4/2 11/26/2 5/5/2
f 11/7/3 7/27/3 6/8/3
f 7/10/4 12/28/4 8/11/4
f 12/13/5 10/29/5 9/14/5
f 10/16/6 2/30/6 1/17/6
f 9/21/7 1/31/7 3/32/7
f 3/32/7 5/19/7 9/21/7
f 6/33/7 8/20/7 5/19/7
f 11/24/8 4/34/8 2/22/8
f 2/22/8 10/35/8 12/23/8
f 12/23/8 7/36/8 11/24/8
